<?xml version="1.0" standalone="no"?>
<!DOCTYPE svg PUBLIC "-//W3C//DTD SVG 20010904//EN"
 "http://www.w3.org/TR/2001/REC-SVG-20010904/DTD/svg10.dtd">
<svg version="1.0" xmlns="http://www.w3.org/2000/svg"
 width="700.000000pt" height="700.000000pt" viewBox="0 0 700.000000 700.000000"
 preserveAspectRatio="xMidYMid meet">
<metadata>
Created by potrace 1.11, written by Peter Selinger 2001-2013
</metadata>
<g transform="translate(0.000000,700.000000) scale(0.100000,-0.100000)"
fill="#000000" stroke="none">
<path d="M1715 5506 c-54 -23 -83 -68 -90 -138 -3 -35 -5 -360 -3 -723 l3
-660 23 -36 c49 -80 154 -91 221 -25 l36 36 3 635 2 635 568 0 567 0 150 -626
c82 -344 157 -639 167 -655 10 -16 32 -38 50 -49 32 -19 52 -20 791 -20 l757
0 -2 -341 -3 -342 -70 -19 c-192 -53 -372 -185 -487 -360 l-51 -77 -383 -3
-382 -3 -27 -25 c-58 -54 -70 -116 -34 -180 42 -74 44 -75 410 -78 l326 -3 6
-132 c6 -156 22 -218 87 -352 83 -172 214 -304 385 -390 496 -247 1082 21
1226 560 29 110 32 299 5 405 -83 326 -328 574 -638 646 l-78 18 0 421 c0 394
-2 423 -20 463 -15 33 -29 47 -62 62 -41 19 -72 20 -808 20 l-765 0 -124 518
c-68 284 -126 523 -128 530 -4 9 17 12 86 12 101 0 142 12 181 55 21 22 25 36
25 90 0 54 -4 68 -25 90 -52 57 -15 55 -977 55 -716 -1 -894 -3 -918 -14z
m3544 -2601 c326 -77 518 -432 404 -748 -145 -403 -647 -516 -948 -213 -174
176 -215 435 -104 664 34 70 119 167 187 214 50 35 148 76 206 88 67 13 187
11 255 -5z"/>
<path d="M5052 2470 c-119 -73 -82 -248 57 -267 85 -12 172 80 156 164 -19
102 -128 155 -213 103z"/>
<path d="M4411 5502 c-19 -9 -44 -30 -55 -45 -21 -28 -21 -41 -24 -540 -3
-585 -6 -562 80 -605 56 -28 104 -23 150 16 58 49 58 47 58 579 0 458 -2 491
-19 530 -14 30 -31 48 -60 62 -49 26 -85 26 -130 3z"/>
<path d="M2003 3709 c-160 -19 -330 -78 -471 -165 -113 -69 -292 -253 -359
-368 -193 -328 -212 -714 -53 -1053 204 -436 683 -698 1156 -632 441 61 804
375 928 803 88 302 35 652 -139 917 -62 95 -229 262 -324 324 -141 93 -315
154 -496 175 -101 11 -139 11 -242 -1z m263 -290 c344 -61 611 -319 680 -658
22 -110 15 -284 -15 -389 -79 -272 -291 -486 -571 -574 -65 -20 -95 -23 -230
-23 -181 0 -243 15 -395 93 -73 38 -109 66 -190 147 -90 89 -107 112 -153 205
-66 134 -83 197 -89 341 -11 252 77 473 256 642 187 176 460 260 707 216z"/>
<path d="M2053 2720 c-70 -42 -87 -144 -35 -209 87 -108 256 -49 254 90 -1 81
-60 139 -142 139 -27 0 -58 -8 -77 -20z"/>
</g>
</svg>
